<?xml version="1.0" encoding="UTF-8" ?>
<svg version="1.1" width="2000" height="1080" xmlns="http://www.w3.org/2000/svg" shape-rendering="crispEdges">
<rect x="1702" y="172" width="2" height="2" fill="#414FA6" />
<rect x="1702" y="174" width="2" height="2" fill="#414FA6" />
<rect x="1700" y="176" width="2" height="2" fill="#414FA6" />
<rect x="1702" y="176" width="2" height="2" fill="#5265D2" />
<rect x="1704" y="176" width="2" height="2" fill="#414FA6" />
<rect x="1696" y="178" width="2" height="2" fill="#414FA6" />
<rect x="1698" y="178" width="2" height="2" fill="#414FA6" />
<rect x="1700" y="178" width="2" height="2" fill="#5265D2" />
<rect x="1702" y="178" width="2" height="2" fill="#6077FF" />
<rect x="1704" y="178" width="2" height="2" fill="#5265D2" />
<rect x="1706" y="178" width="2" height="2" fill="#414FA6" />
<rect x="1708" y="178" width="2" height="2" fill="#414FA6" />
<rect x="1700" y="180" width="2" height="2" fill="#414FA6" />
<rect x="1702" y="180" width="2" height="2" fill="#5265D2" />
<rect x="1704" y="180" width="2" height="2" fill="#414FA6" />
<rect x="1702" y="182" width="2" height="2" fill="#414FA6" />
<rect x="1702" y="184" width="2" height="2" fill="#414FA6" />
<rect x="1186" y="228" width="2" height="2" fill="#A2A2A2" />
<rect x="1186" y="230" width="2" height="2" fill="#A2A2A2" />
<rect x="1184" y="232" width="2" height="2" fill="#A2A2A2" />
<rect x="1186" y="232" width="2" height="2" fill="#D7D7D7" />
<rect x="1188" y="232" width="2" height="2" fill="#A2A2A2" />
<rect x="1180" y="234" width="2" height="2" fill="#A2A2A2" />
<rect x="1182" y="234" width="2" height="2" fill="#A2A2A2" />
<rect x="1184" y="234" width="2" height="2" fill="#D7D7D7" />
<rect x="1186" y="234" width="2" height="2" fill="#FFFFFF" />
<rect x="1188" y="234" width="2" height="2" fill="#D7D7D7" />
<rect x="1190" y="234" width="2" height="2" fill="#A2A2A2" />
<rect x="1192" y="234" width="2" height="2" fill="#A2A2A2" />
<rect x="1184" y="236" width="2" height="2" fill="#A2A2A2" />
<rect x="1186" y="236" width="2" height="2" fill="#D7D7D7" />
<rect x="1188" y="236" width="2" height="2" fill="#A2A2A2" />
<rect x="1186" y="238" width="2" height="2" fill="#A2A2A2" />
<rect x="1186" y="240" width="2" height="2" fill="#A2A2A2" />
<rect x="316" y="246" width="2" height="2" fill="#AC3232" />
<rect x="314" y="248" width="2" height="2" fill="#AC3232" />
<rect x="316" y="248" width="2" height="2" fill="#AC3232" />
<rect x="318" y="248" width="2" height="2" fill="#AC3232" />
<rect x="316" y="250" width="2" height="2" fill="#AC3232" />
<rect x="694" y="392" width="2" height="2" fill="#8A4414" />
<rect x="694" y="394" width="2" height="2" fill="#8A4414" />
<rect x="692" y="396" width="2" height="2" fill="#8A4414" />
<rect x="694" y="396" width="2" height="2" fill="#DF7126" />
<rect x="696" y="396" width="2" height="2" fill="#8A4414" />
<rect x="688" y="398" width="2" height="2" fill="#8A4414" />
<rect x="690" y="398" width="2" height="2" fill="#8A4414" />
<rect x="692" y="398" width="2" height="2" fill="#DF7126" />
<rect x="694" y="398" width="2" height="2" fill="#FF8634" />
<rect x="696" y="398" width="2" height="2" fill="#DF7126" />
<rect x="698" y="398" width="2" height="2" fill="#8A4414" />
<rect x="700" y="398" width="2" height="2" fill="#8A4414" />
<rect x="692" y="400" width="2" height="2" fill="#8A4414" />
<rect x="694" y="400" width="2" height="2" fill="#DF7126" />
<rect x="696" y="400" width="2" height="2" fill="#8A4414" />
<rect x="694" y="402" width="2" height="2" fill="#8A4414" />
<rect x="694" y="404" width="2" height="2" fill="#8A4414" />
<rect x="1330" y="550" width="2" height="2" fill="#414FA6" />
<rect x="1328" y="552" width="2" height="2" fill="#414FA6" />
<rect x="1330" y="552" width="2" height="2" fill="#5265D2" />
<rect x="1332" y="552" width="2" height="2" fill="#414FA6" />
<rect x="1330" y="554" width="2" height="2" fill="#414FA6" />
<rect x="1020" y="672" width="2" height="2" fill="#A2A2A2" />
<rect x="1018" y="674" width="2" height="2" fill="#A2A2A2" />
<rect x="1020" y="674" width="2" height="2" fill="#D7D7D7" />
<rect x="1022" y="674" width="2" height="2" fill="#A2A2A2" />
<rect x="1020" y="676" width="2" height="2" fill="#A2A2A2" />
<rect x="354" y="810" width="2" height="2" fill="#8A2C2C" />
<rect x="354" y="812" width="2" height="2" fill="#8A2C2C" />
<rect x="352" y="814" width="2" height="2" fill="#8A2C2C" />
<rect x="354" y="814" width="2" height="2" fill="#AC3232" />
<rect x="356" y="814" width="2" height="2" fill="#8A2C2C" />
<rect x="348" y="816" width="2" height="2" fill="#8A2C2C" />
<rect x="350" y="816" width="2" height="2" fill="#8A2C2C" />
<rect x="352" y="816" width="2" height="2" fill="#AC3232" />
<rect x="354" y="816" width="2" height="2" fill="#EB4444" />
<rect x="356" y="816" width="2" height="2" fill="#AC3232" />
<rect x="358" y="816" width="2" height="2" fill="#8A2C2C" />
<rect x="360" y="816" width="2" height="2" fill="#8A2C2C" />
<rect x="352" y="818" width="2" height="2" fill="#8A2C2C" />
<rect x="354" y="818" width="2" height="2" fill="#AC3232" />
<rect x="356" y="818" width="2" height="2" fill="#8A2C2C" />
<rect x="354" y="820" width="2" height="2" fill="#8A2C2C" />
<rect x="354" y="822" width="2" height="2" fill="#8A2C2C" />
<rect x="1386" y="872" width="2" height="2" fill="#8A4414" />
<rect x="1384" y="874" width="2" height="2" fill="#8A4414" />
<rect x="1386" y="874" width="2" height="2" fill="#DF7126" />
<rect x="1388" y="874" width="2" height="2" fill="#8A4414" />
<rect x="1386" y="876" width="2" height="2" fill="#8A4414" />
<rect x="1712" y="886" width="2" height="2" fill="#C2BB2D" />
<rect x="1710" y="888" width="2" height="2" fill="#C2BB2D" />
<rect x="1712" y="888" width="2" height="2" fill="#C2BB2D" />
<rect x="1714" y="888" width="2" height="2" fill="#C2BB2D" />
<rect x="1712" y="890" width="2" height="2" fill="#C2BB2D" />
<rect x="838" y="894" width="2" height="2" fill="#928D22" />
<rect x="838" y="896" width="2" height="2" fill="#928D22" />
<rect x="836" y="898" width="2" height="2" fill="#928D22" />
<rect x="838" y="898" width="2" height="2" fill="#C2BB2D" />
<rect x="840" y="898" width="2" height="2" fill="#928D22" />
<rect x="832" y="900" width="2" height="2" fill="#928D22" />
<rect x="834" y="900" width="2" height="2" fill="#928D22" />
<rect x="836" y="900" width="2" height="2" fill="#C2BB2D" />
<rect x="838" y="900" width="2" height="2" fill="#FBF236" />
<rect x="840" y="900" width="2" height="2" fill="#C2BB2D" />
<rect x="842" y="900" width="2" height="2" fill="#928D22" />
<rect x="844" y="900" width="2" height="2" fill="#928D22" />
<rect x="836" y="902" width="2" height="2" fill="#928D22" />
<rect x="838" y="902" width="2" height="2" fill="#C2BB2D" />
<rect x="840" y="902" width="2" height="2" fill="#928D22" />
<rect x="838" y="904" width="2" height="2" fill="#928D22" />
<rect x="838" y="906" width="2" height="2" fill="#928D22" />
</svg>