<?xml version="1.0" encoding="UTF-8" ?>
<svg version="1.1" width="2000" height="1080" xmlns="http://www.w3.org/2000/svg" shape-rendering="crispEdges">
<rect x="172" y="144" width="2" height="2" fill="#A2A2A2" />
<rect x="170" y="146" width="2" height="2" fill="#A2A2A2" />
<rect x="172" y="146" width="2" height="2" fill="#D7D7D7" />
<rect x="174" y="146" width="2" height="2" fill="#A2A2A2" />
<rect x="168" y="148" width="2" height="2" fill="#A2A2A2" />
<rect x="170" y="148" width="2" height="2" fill="#D7D7D7" />
<rect x="172" y="148" width="2" height="2" fill="#FFFFFF" />
<rect x="174" y="148" width="2" height="2" fill="#D7D7D7" />
<rect x="176" y="148" width="2" height="2" fill="#A2A2A2" />
<rect x="170" y="150" width="2" height="2" fill="#A2A2A2" />
<rect x="172" y="150" width="2" height="2" fill="#D7D7D7" />
<rect x="174" y="150" width="2" height="2" fill="#A2A2A2" />
<rect x="172" y="152" width="2" height="2" fill="#A2A2A2" />
<rect x="696" y="162" width="2" height="2" fill="#8A4414" />
<rect x="1278" y="162" width="2" height="2" fill="#8A2C2C" />
<rect x="694" y="164" width="2" height="2" fill="#8A4414" />
<rect x="696" y="164" width="2" height="2" fill="#DF7126" />
<rect x="698" y="164" width="2" height="2" fill="#8A4414" />
<rect x="1276" y="164" width="2" height="2" fill="#8A2C2C" />
<rect x="1278" y="164" width="2" height="2" fill="#AC3232" />
<rect x="1280" y="164" width="2" height="2" fill="#8A2C2C" />
<rect x="692" y="166" width="2" height="2" fill="#8A4414" />
<rect x="694" y="166" width="2" height="2" fill="#DF7126" />
<rect x="696" y="166" width="2" height="2" fill="#FF8634" />
<rect x="698" y="166" width="2" height="2" fill="#DF7126" />
<rect x="700" y="166" width="2" height="2" fill="#8A4414" />
<rect x="1274" y="166" width="2" height="2" fill="#8A2C2C" />
<rect x="1276" y="166" width="2" height="2" fill="#AC3232" />
<rect x="1278" y="166" width="2" height="2" fill="#EB4444" />
<rect x="1280" y="166" width="2" height="2" fill="#AC3232" />
<rect x="1282" y="166" width="2" height="2" fill="#8A2C2C" />
<rect x="694" y="168" width="2" height="2" fill="#8A4414" />
<rect x="696" y="168" width="2" height="2" fill="#DF7126" />
<rect x="698" y="168" width="2" height="2" fill="#8A4414" />
<rect x="1276" y="168" width="2" height="2" fill="#8A2C2C" />
<rect x="1278" y="168" width="2" height="2" fill="#AC3232" />
<rect x="1280" y="168" width="2" height="2" fill="#8A2C2C" />
<rect x="696" y="170" width="2" height="2" fill="#8A4414" />
<rect x="1278" y="170" width="2" height="2" fill="#8A2C2C" />
<rect x="1564" y="340" width="2" height="2" fill="#928D22" />
<rect x="1562" y="342" width="2" height="2" fill="#928D22" />
<rect x="1564" y="342" width="2" height="2" fill="#C2BB2D" />
<rect x="1566" y="342" width="2" height="2" fill="#928D22" />
<rect x="1564" y="344" width="2" height="2" fill="#928D22" />
<rect x="802" y="486" width="2" height="2" fill="#414FA6" />
<rect x="800" y="488" width="2" height="2" fill="#414FA6" />
<rect x="802" y="488" width="2" height="2" fill="#5265D2" />
<rect x="804" y="488" width="2" height="2" fill="#414FA6" />
<rect x="802" y="490" width="2" height="2" fill="#414FA6" />
<rect x="1186" y="622" width="2" height="2" fill="#8A2C2C" />
<rect x="1184" y="624" width="2" height="2" fill="#8A2C2C" />
<rect x="1186" y="624" width="2" height="2" fill="#AC3232" />
<rect x="1188" y="624" width="2" height="2" fill="#8A2C2C" />
<rect x="1186" y="626" width="2" height="2" fill="#8A2C2C" />
<rect x="1750" y="760" width="2" height="2" fill="#A2A2A2" />
<rect x="1748" y="762" width="2" height="2" fill="#A2A2A2" />
<rect x="1750" y="762" width="2" height="2" fill="#D7D7D7" />
<rect x="1752" y="762" width="2" height="2" fill="#A2A2A2" />
<rect x="1750" y="764" width="2" height="2" fill="#A2A2A2" />
<rect x="198" y="774" width="2" height="2" fill="#928D22" />
<rect x="196" y="776" width="2" height="2" fill="#928D22" />
<rect x="198" y="776" width="2" height="2" fill="#C2BB2D" />
<rect x="200" y="776" width="2" height="2" fill="#928D22" />
<rect x="194" y="778" width="2" height="2" fill="#928D22" />
<rect x="196" y="778" width="2" height="2" fill="#C2BB2D" />
<rect x="198" y="778" width="2" height="2" fill="#FBF236" />
<rect x="200" y="778" width="2" height="2" fill="#C2BB2D" />
<rect x="202" y="778" width="2" height="2" fill="#928D22" />
<rect x="196" y="780" width="2" height="2" fill="#928D22" />
<rect x="198" y="780" width="2" height="2" fill="#C2BB2D" />
<rect x="200" y="780" width="2" height="2" fill="#928D22" />
<rect x="198" y="782" width="2" height="2" fill="#928D22" />
<rect x="712" y="882" width="2" height="2" fill="#414FA6" />
<rect x="710" y="884" width="2" height="2" fill="#414FA6" />
<rect x="712" y="884" width="2" height="2" fill="#5265D2" />
<rect x="714" y="884" width="2" height="2" fill="#414FA6" />
<rect x="708" y="886" width="2" height="2" fill="#414FA6" />
<rect x="710" y="886" width="2" height="2" fill="#5265D2" />
<rect x="712" y="886" width="2" height="2" fill="#6077FF" />
<rect x="714" y="886" width="2" height="2" fill="#5265D2" />
<rect x="716" y="886" width="2" height="2" fill="#414FA6" />
<rect x="710" y="888" width="2" height="2" fill="#414FA6" />
<rect x="712" y="888" width="2" height="2" fill="#5265D2" />
<rect x="714" y="888" width="2" height="2" fill="#414FA6" />
<rect x="712" y="890" width="2" height="2" fill="#414FA6" />
<rect x="1174" y="912" width="2" height="2" fill="#8A4414" />
<rect x="1172" y="914" width="2" height="2" fill="#8A4414" />
<rect x="1174" y="914" width="2" height="2" fill="#DF7126" />
<rect x="1176" y="914" width="2" height="2" fill="#8A4414" />
<rect x="1174" y="916" width="2" height="2" fill="#8A4414" />
</svg>